HIERARCHY
ROOT Hips
{
	OFFSET 0.00000 0.00000 0.00000
	CHANNELS 6 Xposition Yposition Zposition Zrotation Yrotation Xrotation 
	JOINT LHipJoint
	{
		OFFSET 0 0 0
		CHANNELS 3 Zrotation Yrotation Xrotation
		JOINT LeftUpLeg
		{
			OFFSET 1.36306 -1.79463 0.83929
			CHANNELS 3 Zrotation Yrotation Xrotation
			JOINT LeftLeg
			{
				OFFSET 2.44811 -6.72613 0.00000
				CHANNELS 3 Zrotation Yrotation Xrotation
				JOINT LeftFoot
				{
					OFFSET 2.56220 -7.03959 0.00000
					CHANNELS 3 Zrotation Yrotation Xrotation
					JOINT LeftToeBase
					{
						OFFSET 0.15764 -0.43311 2.32255
						CHANNELS 3 Zrotation Yrotation Xrotation
						End Site
						{
							OFFSET 0.00000 -0.00000 1.18966
						}
					}
				}
			}
		}
	}
	JOINT RHipJoint
	{
		OFFSET 0 0 0
		CHANNELS 3 Zrotation Yrotation Xrotation
		JOINT RightUpLeg
		{
			OFFSET -1.30552 -1.79463 0.83929
			CHANNELS 3 Zrotation Yrotation Xrotation
			JOINT RightLeg
			{
				OFFSET -2.54253 -6.98555 0.00000
				CHANNELS 3 Zrotation Yrotation Xrotation
				JOINT RightFoot
				{
					OFFSET -2.56826 -7.05623 0.00000
					CHANNELS 3 Zrotation Yrotation Xrotation
					JOINT RightToeBase
					{
						OFFSET -0.16473 -0.45259 2.36315
						CHANNELS 3 Zrotation Yrotation Xrotation
						End Site
						{
							OFFSET -0.00000 -0.00000 1.21082
						}
					}
				}
			}
		}
	}
	JOINT LowerBack
	{
		OFFSET 0 0 0
		CHANNELS 3 Zrotation Yrotation Xrotation
		JOINT Spine
		{
			OFFSET 0.02827 2.03559 -0.19338
			CHANNELS 3 Zrotation Yrotation Xrotation
			JOINT Spine1
			{
				OFFSET 0.05672 2.04885 -0.04275
				CHANNELS 3 Zrotation Yrotation Xrotation
				JOINT Neck
				{
					OFFSET 0 0 0
					CHANNELS 3 Zrotation Yrotation Xrotation
					JOINT Neck1
					{
						OFFSET -0.05417 1.74624 0.17202
						CHANNELS 3 Zrotation Yrotation Xrotation
						JOINT Head
						{
							OFFSET 0.10407 1.76136 -0.12397
							CHANNELS 3 Zrotation Yrotation Xrotation
							End Site
							{
								OFFSET 0.03720 1.77044 -0.06241
							}
						}
					}
				}
				JOINT LeftShoulder
				{
					OFFSET 0 0 0
					CHANNELS 3 Zrotation Yrotation Xrotation
					JOINT LeftArm
					{
						OFFSET 3.36241 1.20089 -0.31121
						CHANNELS 3 Zrotation Yrotation Xrotation
						JOINT LeftForeArm
						{
							OFFSET 4.98300 -0.00000 -0.00000
							CHANNELS 3 Zrotation Yrotation Xrotation
							JOINT LeftHand
							{
								OFFSET 3.48356 -0.00000 -0.00000
								CHANNELS 3 Zrotation Yrotation Xrotation
								JOINT LeftFingerBase
								{
									OFFSET 0 0 0
									CHANNELS 3 Zrotation Yrotation Xrotation
									JOINT LeftHandIndex1
									{
										OFFSET 0.71526 -0.00000 -0.00000
										CHANNELS 3 Zrotation Yrotation Xrotation
										End Site
										{
											OFFSET 0.57666 -0.00000 -0.00000
										}
									}
								}
								JOINT LThumb
								{
									OFFSET 0 0 0
									CHANNELS 3 Zrotation Yrotation Xrotation
									End Site
									{
										OFFSET 0.58547 -0.00000 0.58547
									}
								}
							}
						}
					}
				}
				JOINT RightShoulder
				{
					OFFSET 0 0 0
					CHANNELS 3 Zrotation Yrotation Xrotation
					JOINT RightArm
					{
						OFFSET -3.13660 1.37405 -0.40465
						CHANNELS 3 Zrotation Yrotation Xrotation
						JOINT RightForeArm
						{
							OFFSET -5.24190 -0.00000 -0.00000
							CHANNELS 3 Zrotation Yrotation Xrotation
							JOINT RightHand
							{
								OFFSET -3.44417 -0.00000 -0.00000
								CHANNELS 3 Zrotation Yrotation Xrotation
								JOINT RightFingerBase
								{
									OFFSET 0 0 0
									CHANNELS 3 Zrotation Yrotation Xrotation
									JOINT RightHandIndex1
									{
										OFFSET -0.62253 -0.00000 -0.00000
										CHANNELS 3 Zrotation Yrotation Xrotation
										End Site
										{
											OFFSET -0.50190 -0.00000 -0.00000
										}
									}
								}
								JOINT RThumb
								{
									OFFSET 0 0 0
									CHANNELS 3 Zrotation Yrotation Xrotation
									End Site
									{
										OFFSET -0.50956 -0.00000 0.50956
									}
								}
							}
						}
					}
				}
			}
		}
	}
}
MOTION
Frames: 5
Frame Time: .0083333
14.0552 26.4068 49.0001 6.4877 -178.9130 364.6720 0.0000 0.0000 0.0000 -7.8985 -4.8939 -28.4540 3.9775 12.1304 36.1947 2.8064 -10.3205 -30.1995 0.1649 -2.6158 -7.2110 0.0000 0.0000 0.0000 30.0196 14.3061 -23.5994 -3.2107 -11.0285 32.3761 -0.1845 -22.3794 -32.7264 -0.2009 -2.8862 7.9622 -0.3694 2.2031 28.7023 4.2185 -0.6186 12.1057 5.0987 -1.9037 -2.1750 -10.8275 -12.6824 -31.0466 17.9394 -5.1770 -21.9884 7.2523 1.5600 -1.1310 0.0000 -0.0000 0.0000 -72.5624 -62.8097 28.2582 17.0972 -26.9858 -4.1314 -0.0000 -0.0000 29.9155 14.2028 -15.3064 -3.8223 -7.1250 0.0000 -0.0000 -9.0382 14.3515 6.6000 0.0000 -0.0000 0.0000 70.2218 62.6987 46.1808 -51.4884 53.5784 -27.3673 0.0000 0.0000 7.7043 -6.5713 -16.2042 1.8413 7.1250 -0.0000 -0.0000 19.6512 -45.3244 -0.1637
14.0296 26.4332 48.9293 6.3228 -178.4320 364.7180 0.0000 0.0000 0.0000 -8.1586 -5.0971 -28.3471 3.9873 12.1434 36.2413 2.7677 -10.7259 -29.9862 0.1661 -2.6258 -7.2387 0.0000 0.0000 0.0000 29.7912 13.8191 -23.6721 -3.2470 -11.0845 32.5653 -0.1280 -22.3251 -32.3013 -0.3140 -3.6024 9.9607 -0.2272 1.9851 28.3571 4.2622 -0.8072 12.0464 5.1067 -1.9707 -2.0649 -10.5520 -12.5564 -31.7264 17.4282 -5.2860 -21.1023 7.0110 1.4549 -0.8199 0.0000 0.0000 0.0000 -73.4113 -62.6415 29.2543 16.8444 -26.6522 -4.0173 -0.0000 -0.0000 29.9836 14.5366 -14.9650 -3.8307 -7.1250 0.0000 -0.0000 -8.8112 14.6694 6.3697 0.0000 0.0000 0.0000 69.1157 62.8238 45.1377 -55.9711 55.1371 -31.0113 0.0000 0.0000 7.0150 -7.5424 -15.9251 2.0806 7.1250 -0.0000 -0.0000 18.6884 -45.1752 -0.0838
14.0342 26.4493 48.8535 6.2106 -179.6670 364.3940 0.0000 0.0000 0.0000 -8.3246 -3.8352 -27.7505 4.0116 12.1758 36.3569 2.7689 -11.0688 -29.9984 0.1395 -2.4074 -6.6329 0.0000 0.0000 0.0000 29.9110 14.4441 -22.6682 -3.2795 -11.1343 32.7341 -0.2027 -21.7132 -31.9709 -0.4440 -4.2756 11.8532 -1.1590 2.7546 28.2425 4.3686 -0.1048 12.1851 5.5563 -1.6908 -1.9299 -10.1570 -12.3954 -31.6617 16.7934 -5.3241 -20.9876 6.7191 1.3619 -0.8481 -0.0000 0.0000 0.0000 -74.3199 -62.5506 30.3358 16.5466 -26.2562 -3.8846 -0.0000 -0.0000 30.1614 14.9837 -14.5165 -3.8381 -7.1250 0.0000 -0.0000 -8.5059 15.0877 6.0670 -0.0000 0.0000 0.0000 68.0167 63.2255 44.2078 -60.3725 56.4084 -34.6512 0.0000 0.0000 6.1824 -9.9164 -16.4350 2.8317 7.1250 -0.0000 -0.0000 16.7463 -45.9509 -0.4043
14.0000 26.4762 48.7865 6.0898 -178.8320 364.3390 0.0000 0.0000 0.0000 -8.5324 -4.6500 -27.4285 4.0362 12.2085 36.4735 2.7385 -10.9190 -29.8262 0.1442 -2.4473 -6.7436 0.0000 0.0000 0.0000 29.6909 13.6757 -22.7441 -3.3105 -11.1816 32.8947 -0.3052 -21.3103 -32.1049 -0.5724 -4.8451 13.4673 -0.6769 2.3373 28.0131 4.4226 -0.4695 12.1153 5.4335 -1.8342 -1.8600 -9.7488 -12.2177 -31.3802 16.0894 -5.2729 -21.2105 6.4147 1.3244 -1.0195 0.0000 0.0000 0.0000 -75.0675 -62.0987 31.4809 16.4872 -26.1769 -3.8584 -0.0000 -0.0000 30.0910 15.3711 -13.8217 -3.7575 -7.1250 0.0000 -0.0000 -8.2385 15.7642 5.7509 0.0000 0.0000 0.0000 66.8906 63.8332 42.6842 -65.0667 57.5155 -38.5872 0.0000 0.0000 6.7083 -8.0510 -16.5557 2.3081 7.1250 -0.0000 -0.0000 18.4641 -45.8369 -0.3949
13.9918 26.4930 48.7152 6.2584 -179.5010 364.1730 0.0000 0.0000 0.0000 -8.4163 -3.9045 -27.0922 4.0665 12.2484 36.6164 2.7649 -10.7478 -29.9706 0.1705 -2.6597 -7.3328 0.0000 0.0000 0.0000 30.0048 13.8588 -22.1938 -3.3403 -11.2265 33.0477 -0.3266 -20.9688 -31.8090 -0.6662 -5.2200 14.5371 -0.8224 2.6686 27.8588 4.5181 -0.0861 12.1424 5.5090 -1.6614 -1.7976 -9.4014 -12.0693 -31.4545 15.5004 -5.2478 -21.1064 6.1574 1.2910 -1.0371 -0.0000 -0.0000 0.0000 -75.5644 -61.4809 32.4709 16.5308 -26.2351 -3.8776 -0.0000 -0.0000 29.7899 15.7884 -13.1535 -3.6815 -7.1250 0.0000 -0.0000 -7.9496 16.4141 5.4323 -0.0000 -0.0000 0.0000 65.7895 64.5688 41.4339 -69.9334 58.4225 -42.7139 0.0000 0.0000 6.4697 -9.4314 -16.4472 2.6927 7.1250 -0.0000 -0.0000 17.1871 -45.9029 -0.3946
